<svg xmlns="http://www.w3.org/2000/svg" width="520" height="400" viewBox="0 0 520 400" font-family="'Courier New', Courier, monospace"><defs><filter id="glow" x="-50%" y="-50%" width="200%" height="200%"><feGaussianBlur stdDeviation="2.2" result="blur"/><feMerge><feMergeNode in="blur"/><feMergeNode in="SourceGraphic"/></feMerge></filter></defs><rect width="520" height="400" fill="#0D1117"/><rect x="10" y="10" width="500" height="380" rx="12" fill="#161B22" stroke="#30363D" stroke-width="1"/><text x="260.0" y="34" text-anchor="middle" fill="#8B949E" font-size="12">dakshkumar96 · language mix</text><path d="M 260.0,187.0 L 287.4,200.2 L 294.1,229.8 L 275.2,253.5 L 244.8,253.5 L 225.9,229.8 L 232.6,200.2 Z" fill="none" stroke="#30363D" stroke-width="1" opacity="0.6"/><path d="M 260.0,152.0 L 314.7,178.4 L 328.2,237.6 L 290.4,285.1 L 229.6,285.1 L 191.8,237.6 L 205.3,178.4 Z" fill="none" stroke="#30363D" stroke-width="1" opacity="0.6"/><path d="M 260.0,117.0 L 342.1,156.5 L 362.4,245.4 L 305.6,316.6 L 214.4,316.6 L 157.6,245.4 L 177.9,156.5 Z" fill="none" stroke="#30363D" stroke-width="1" opacity="0.6"/><line x1="260.0" y1="222.0" x2="260.0" y2="117.0" stroke="#30363D" stroke-width="1" opacity="0.6"/><line x1="260.0" y1="222.0" x2="342.1" y2="156.5" stroke="#30363D" stroke-width="1" opacity="0.6"/><line x1="260.0" y1="222.0" x2="362.4" y2="245.4" stroke="#30363D" stroke-width="1" opacity="0.6"/><line x1="260.0" y1="222.0" x2="305.6" y2="316.6" stroke="#30363D" stroke-width="1" opacity="0.6"/><line x1="260.0" y1="222.0" x2="214.4" y2="316.6" stroke="#30363D" stroke-width="1" opacity="0.6"/><line x1="260.0" y1="222.0" x2="157.6" y2="245.4" stroke="#30363D" stroke-width="1" opacity="0.6"/><line x1="260.0" y1="222.0" x2="177.9" y2="156.5" stroke="#30363D" stroke-width="1" opacity="0.6"/><path d="M 260.0,117.0 L 341.9,156.7 L 331.9,238.4 L 289.9,284.1 L 240.7,262.1 L 227.2,229.5 L 235.3,202.3 Z" fill="#3B82F6" fill-opacity="0.18" stroke="#3B82F6" stroke-width="2"/><circle cx="260.0" cy="117.0" r="4" fill="#3B82F6" stroke="#161B22" stroke-width="1"/><circle cx="341.9" cy="156.7" r="4" fill="#3B82F6" stroke="#161B22" stroke-width="1"/><circle cx="331.9" cy="238.4" r="4" fill="#3B82F6" stroke="#161B22" stroke-width="1"/><circle cx="289.9" cy="284.1" r="4" fill="#3B82F6" stroke="#161B22" stroke-width="1"/><circle cx="240.7" cy="262.1" r="4" fill="#3B82F6" stroke="#161B22" stroke-width="1"/><circle cx="227.2" cy="229.5" r="4" fill="#3B82F6" stroke="#161B22" stroke-width="1"/><circle cx="235.3" cy="202.3" r="4" fill="#3B82F6" stroke="#161B22" stroke-width="1"/><text x="260.0" y="91.0" text-anchor="middle" fill="#8B949E" font-size="11">TypeScript</text><text x="260.0" y="105.0" text-anchor="middle" fill="#F0F6FC" font-size="10">33.5</text><text x="362.4199242033119" y="140.3228359565059" text-anchor="start" fill="#8B949E" font-size="11">Python</text><text x="362.4199242033119" y="154.3228359565059" text-anchor="start" fill="#F0F6FC" font-size="10">33.3</text><text x="387.7155564958189" y="251.15024234827717" text-anchor="start" fill="#8B949E" font-size="11">JavaScript</text><text x="387.7155564958189" y="265.1502423482772" text-anchor="start" fill="#F0F6FC" font-size="10">13.9</text><text x="316.8387698244001" y="340.0269216952169" text-anchor="start" fill="#8B949E" font-size="11">CSS</text><text x="316.8387698244001" y="354.0269216952169" text-anchor="start" fill="#F0F6FC" font-size="10">11.7</text><text x="203.16123017559988" y="340.0269216952169" text-anchor="end" fill="#8B949E" font-size="11">HTML</text><text x="203.16123017559988" y="354.0269216952169" text-anchor="end" fill="#F0F6FC" font-size="10">3.9</text><text x="132.28444350418113" y="251.1502423482772" text-anchor="end" fill="#8B949E" font-size="11">Jupyter Notebook</text><text x="132.28444350418113" y="265.1502423482772" text-anchor="end" fill="#F0F6FC" font-size="10">1.9</text><text x="157.58007579668808" y="140.3228359565059" text-anchor="end" fill="#8B949E" font-size="11">PLpgSQL</text><text x="157.58007579668808" y="154.3228359565059" text-anchor="end" fill="#F0F6FC" font-size="10">1.7</text></svg>