<svg xmlns="http://www.w3.org/2000/svg" width="572" height="418" viewBox="0 0 572 418" font-family="'Courier New', Courier, monospace"><defs><filter id="glow" x="-50%" y="-50%" width="200%" height="200%"><feGaussianBlur stdDeviation="2.2" result="blur"/><feMerge><feMergeNode in="blur"/><feMergeNode in="SourceGraphic"/></feMerge></filter></defs><rect width="572" height="418" fill="#FFFFFF"/><rect x="11" y="11" width="550" height="396" rx="12" fill="#F6F8FA" stroke="#D0D7DE" stroke-width="1"/><path d="M 286.0,177.5 L 322.6,204.1 L 308.6,247.1 L 263.4,247.1 L 249.4,204.1 Z" fill="none" stroke="#D0D7DE" stroke-width="1" opacity="0.6"/><path d="M 286.0,139.0 L 359.2,192.2 L 331.3,278.3 L 240.7,278.3 L 212.8,192.2 Z" fill="none" stroke="#D0D7DE" stroke-width="1" opacity="0.6"/><path d="M 286.0,100.5 L 395.8,180.3 L 353.9,309.4 L 218.1,309.4 L 176.2,180.3 Z" fill="none" stroke="#D0D7DE" stroke-width="1" opacity="0.6"/><line x1="286.0" y1="216.0" x2="286.0" y2="100.5" stroke="#D0D7DE" stroke-width="1" opacity="0.6"/><line x1="286.0" y1="216.0" x2="395.8" y2="180.3" stroke="#D0D7DE" stroke-width="1" opacity="0.6"/><line x1="286.0" y1="216.0" x2="353.9" y2="309.4" stroke="#D0D7DE" stroke-width="1" opacity="0.6"/><line x1="286.0" y1="216.0" x2="218.1" y2="309.4" stroke="#D0D7DE" stroke-width="1" opacity="0.6"/><line x1="286.0" y1="216.0" x2="176.2" y2="180.3" stroke="#D0D7DE" stroke-width="1" opacity="0.6"/><path d="M 286.0,100.5 L 392.2,181.5 L 327.5,273.1 L 248.3,267.9 L 255.1,206.0 Z" fill="#1A7F37" fill-opacity="0.18" stroke="#1A7F37" stroke-width="2" filter="url(#glow)"/><circle cx="286.0" cy="100.5" r="4" fill="#1A7F37" stroke="#F6F8FA" stroke-width="1"/><circle cx="392.2" cy="181.5" r="4" fill="#1A7F37" stroke="#F6F8FA" stroke-width="1"/><circle cx="327.5" cy="273.1" r="4" fill="#1A7F37" stroke="#F6F8FA" stroke-width="1"/><circle cx="248.3" cy="267.9" r="4" fill="#1A7F37" stroke="#F6F8FA" stroke-width="1"/><circle cx="255.1" cy="206.0" r="4" fill="#1A7F37" stroke="#F6F8FA" stroke-width="1"/><text x="286.0" y="71.9" text-anchor="middle" fill="#57606A" font-size="11">TypeScript</text><text x="286.0" y="85.9" text-anchor="middle" fill="#1F2328" font-size="10">39.6</text><text x="423.04724399813165" y="171.4706511105701" text-anchor="start" fill="#57606A" font-size="11">Python</text><text x="423.04724399813165" y="185.4706511105701" text-anchor="start" fill="#1F2328" font-size="10">36.4</text><text x="370.6998548553454" y="332.5793488894299" text-anchor="start" fill="#57606A" font-size="11">JavaScript</text><text x="370.6998548553454" y="346.5793488894299" text-anchor="start" fill="#1F2328" font-size="10">11.6</text><text x="201.30014514465464" y="332.5793488894299" text-anchor="end" fill="#57606A" font-size="11">CSS</text><text x="201.30014514465464" y="346.5793488894299" text-anchor="end" fill="#1F2328" font-size="10">9.1</text><text x="148.95275600186835" y="171.4706511105701" text-anchor="end" fill="#57606A" font-size="11">Jupyter Notebook</text><text x="148.95275600186835" y="185.4706511105701" text-anchor="end" fill="#1F2328" font-size="10">1.7</text></svg>