<svg xmlns="http://www.w3.org/2000/svg" width="560" height="460" viewBox="0 0 560 460" font-family="'Courier New', Courier, monospace"><defs><filter id="glow" x="-50%" y="-50%" width="200%" height="200%"><feGaussianBlur stdDeviation="2.2" result="blur"/><feMerge><feMergeNode in="blur"/><feMergeNode in="SourceGraphic"/></feMerge></filter></defs><rect width="560" height="460" fill="#0A0A0A"/><rect x="10" y="10" width="540" height="440" rx="0" fill="#141414" stroke="#14213D" stroke-width="1"/><path d="M 10 10 L 550 10" stroke="#3B82F6" stroke-width="2" stroke-linecap="butt" opacity="0.85"/><path d="M 12 18 L 12 12 L 18 12" fill="none" stroke="#3B82F6" stroke-width="1.5" opacity="0.55"/><path d="M 548 18 L 548 12 L 542 12" fill="none" stroke="#3B82F6" stroke-width="1.5" opacity="0.55"/><path d="M 12 442 L 12 448 L 18 448" fill="none" stroke="#3B82F6" stroke-width="1.5" opacity="0.55"/><path d="M 548 442 L 548 448 L 542 448" fill="none" stroke="#3B82F6" stroke-width="1.5" opacity="0.55"/><path d="M 280.0,201.0 L 307.4,214.2 L 314.1,243.8 L 295.2,267.5 L 264.8,267.5 L 245.9,243.8 L 252.6,214.2 Z" fill="none" stroke="#14213D" stroke-width="1" opacity="0.6"/><path d="M 280.0,166.0 L 334.7,192.4 L 348.2,251.6 L 310.4,299.1 L 249.6,299.1 L 211.8,251.6 L 225.3,192.4 Z" fill="none" stroke="#14213D" stroke-width="1" opacity="0.6"/><path d="M 280.0,131.0 L 362.1,170.5 L 382.4,259.4 L 325.6,330.6 L 234.4,330.6 L 177.6,259.4 L 197.9,170.5 Z" fill="none" stroke="#14213D" stroke-width="1" opacity="0.6"/><line x1="280.0" y1="236.0" x2="280.0" y2="131.0" stroke="#14213D" stroke-width="1" opacity="0.6"/><line x1="280.0" y1="236.0" x2="362.1" y2="170.5" stroke="#14213D" stroke-width="1" opacity="0.6"/><line x1="280.0" y1="236.0" x2="382.4" y2="259.4" stroke="#14213D" stroke-width="1" opacity="0.6"/><line x1="280.0" y1="236.0" x2="325.6" y2="330.6" stroke="#14213D" stroke-width="1" opacity="0.6"/><line x1="280.0" y1="236.0" x2="234.4" y2="330.6" stroke="#14213D" stroke-width="1" opacity="0.6"/><line x1="280.0" y1="236.0" x2="177.6" y2="259.4" stroke="#14213D" stroke-width="1" opacity="0.6"/><line x1="280.0" y1="236.0" x2="197.9" y2="170.5" stroke="#14213D" stroke-width="1" opacity="0.6"/><path d="M 280.0,131.0 L 360.1,172.1 L 373.6,257.4 L 323.3,326.0 L 240.0,319.1 L 198.9,254.5 L 234.9,200.1 Z" fill="#3B82F6" fill-opacity="0.18" stroke="#3B82F6" stroke-width="2"/><circle cx="280.0" cy="131.0" r="4" fill="#3B82F6" stroke="#141414" stroke-width="1"/><circle cx="360.1" cy="172.1" r="4" fill="#3B82F6" stroke="#141414" stroke-width="1"/><circle cx="373.6" cy="257.4" r="4" fill="#3B82F6" stroke="#141414" stroke-width="1"/><circle cx="323.3" cy="326.0" r="4" fill="#3B82F6" stroke="#141414" stroke-width="1"/><circle cx="240.0" cy="319.1" r="4" fill="#3B82F6" stroke="#141414" stroke-width="1"/><circle cx="198.9" cy="254.5" r="4" fill="#3B82F6" stroke="#141414" stroke-width="1"/><circle cx="234.9" cy="200.1" r="4" fill="#3B82F6" stroke="#141414" stroke-width="1"/><text x="280.0" y="105.0" text-anchor="middle" fill="#999999" font-size="11">Python</text><text x="382.4199242033119" y="154.3228359565059" text-anchor="start" fill="#999999" font-size="11">SQL</text><text x="407.7155564958189" y="258.6502423482772" text-anchor="start" fill="#999999" font-size="11">Statistics /</text><text x="407.7155564958189" y="271.6502423482772" text-anchor="start" fill="#999999" font-size="11">Survival Analysis</text><text x="336.8387698244001" y="354.0269216952169" text-anchor="start" fill="#999999" font-size="11">LLM / RAG</text><text x="223.16123017559988" y="347.5269216952169" text-anchor="end" fill="#999999" font-size="11">FastAPI /</text><text x="223.16123017559988" y="360.5269216952169" text-anchor="end" fill="#999999" font-size="11">Backend</text><text x="152.28444350418113" y="265.1502423482772" text-anchor="end" fill="#999999" font-size="11">Next.js / React</text><text x="177.58007579668808" y="154.3228359565059" text-anchor="end" fill="#999999" font-size="11">Power BI</text></svg>