<svg xmlns="http://www.w3.org/2000/svg" width="572" height="418" viewBox="0 0 572 418" font-family="'Courier New', Courier, monospace"><defs><filter id="glow" x="-50%" y="-50%" width="200%" height="200%"><feGaussianBlur stdDeviation="2.2" result="blur"/><feMerge><feMergeNode in="blur"/><feMergeNode in="SourceGraphic"/></feMerge></filter></defs><rect width="572" height="418" fill="#FFFFFF"/><rect x="11" y="11" width="550" height="396" rx="12" fill="#F6F8FA" stroke="#D0D7DE" stroke-width="1"/><path d="M 286.0,177.5 L 319.3,196.8 L 319.3,235.2 L 286.0,254.5 L 252.7,235.2 L 252.7,196.8 Z" fill="none" stroke="#D0D7DE" stroke-width="1" opacity="0.6"/><path d="M 286.0,139.0 L 352.7,177.5 L 352.7,254.5 L 286.0,293.0 L 219.3,254.5 L 219.3,177.5 Z" fill="none" stroke="#D0D7DE" stroke-width="1" opacity="0.6"/><path d="M 286.0,100.5 L 386.0,158.2 L 386.0,273.8 L 286.0,331.5 L 186.0,273.8 L 186.0,158.3 Z" fill="none" stroke="#D0D7DE" stroke-width="1" opacity="0.6"/><line x1="286.0" y1="216.0" x2="286.0" y2="100.5" stroke="#D0D7DE" stroke-width="1" opacity="0.6"/><line x1="286.0" y1="216.0" x2="386.0" y2="158.2" stroke="#D0D7DE" stroke-width="1" opacity="0.6"/><line x1="286.0" y1="216.0" x2="386.0" y2="273.8" stroke="#D0D7DE" stroke-width="1" opacity="0.6"/><line x1="286.0" y1="216.0" x2="286.0" y2="331.5" stroke="#D0D7DE" stroke-width="1" opacity="0.6"/><line x1="286.0" y1="216.0" x2="186.0" y2="273.8" stroke="#D0D7DE" stroke-width="1" opacity="0.6"/><line x1="286.0" y1="216.0" x2="186.0" y2="158.3" stroke="#D0D7DE" stroke-width="1" opacity="0.6"/><path d="M 286.0,100.5 L 365.6,170.1 L 374.7,267.2 L 286.0,294.8 L 189.4,271.8 L 200.8,166.8 Z" fill="#D4A853" fill-opacity="0.18" stroke="#D4A853" stroke-width="2" filter="url(#glow)"/><circle cx="286.0" cy="100.5" r="4" fill="#D4A853" stroke="#F6F8FA" stroke-width="1"/><circle cx="365.6" cy="170.1" r="4" fill="#D4A853" stroke="#F6F8FA" stroke-width="1"/><circle cx="374.7" cy="267.2" r="4" fill="#D4A853" stroke="#F6F8FA" stroke-width="1"/><circle cx="286.0" cy="294.8" r="4" fill="#D4A853" stroke="#F6F8FA" stroke-width="1"/><circle cx="189.4" cy="271.8" r="4" fill="#D4A853" stroke="#F6F8FA" stroke-width="1"/><circle cx="200.8" cy="166.8" r="4" fill="#D4A853" stroke="#F6F8FA" stroke-width="1"/><text x="286.0" y="71.9" text-anchor="middle" fill="#57606A" font-size="11">Python</text><text x="410.7942606853376" y="143.95" text-anchor="start" fill="#57606A" font-size="11">SQL / Data</text><text x="410.79426068533763" y="288.04999999999995" text-anchor="start" fill="#57606A" font-size="11">TypeScript / JS</text><text x="286.0" y="360.1" text-anchor="middle" fill="#57606A" font-size="11">PyTorch / ML</text><text x="161.20573931466242" y="288.05000000000007" text-anchor="end" fill="#57606A" font-size="11">RAG / LLMs</text><text x="161.20573931466234" y="143.9500000000001" text-anchor="end" fill="#57606A" font-size="11">Docker / Deploy</text></svg>