<svg xmlns="http://www.w3.org/2000/svg" width="572" height="418" viewBox="0 0 572 418" font-family="'Courier New', Courier, monospace"><defs><filter id="glow" x="-50%" y="-50%" width="200%" height="200%"><feGaussianBlur stdDeviation="2.2" result="blur"/><feMerge><feMergeNode in="blur"/><feMergeNode in="SourceGraphic"/></feMerge></filter></defs><rect width="572" height="418" fill="#0D1117"/><rect x="11" y="11" width="550" height="396" rx="12" fill="#161B22" stroke="#30363D" stroke-width="1"/><path d="M 286.0,177.5 L 316.1,192.0 L 323.5,224.6 L 302.7,250.7 L 269.3,250.7 L 248.5,224.6 L 255.9,192.0 Z" fill="none" stroke="#30363D" stroke-width="1" opacity="0.6"/><path d="M 286.0,139.0 L 346.2,168.0 L 361.1,233.1 L 319.4,285.4 L 252.6,285.4 L 210.9,233.1 L 225.8,168.0 Z" fill="none" stroke="#30363D" stroke-width="1" opacity="0.6"/><path d="M 286.0,100.5 L 376.3,144.0 L 398.6,241.7 L 336.1,320.1 L 235.9,320.1 L 173.4,241.7 L 195.7,144.0 Z" fill="none" stroke="#30363D" stroke-width="1" opacity="0.6"/><line x1="286.0" y1="216.0" x2="286.0" y2="100.5" stroke="#30363D" stroke-width="1" opacity="0.6"/><line x1="286.0" y1="216.0" x2="376.3" y2="144.0" stroke="#30363D" stroke-width="1" opacity="0.6"/><line x1="286.0" y1="216.0" x2="398.6" y2="241.7" stroke="#30363D" stroke-width="1" opacity="0.6"/><line x1="286.0" y1="216.0" x2="336.1" y2="320.1" stroke="#30363D" stroke-width="1" opacity="0.6"/><line x1="286.0" y1="216.0" x2="235.9" y2="320.1" stroke="#30363D" stroke-width="1" opacity="0.6"/><line x1="286.0" y1="216.0" x2="173.4" y2="241.7" stroke="#30363D" stroke-width="1" opacity="0.6"/><line x1="286.0" y1="216.0" x2="195.7" y2="144.0" stroke="#30363D" stroke-width="1" opacity="0.6"/><path d="M 286.0,100.5 L 373.2,146.4 L 382.0,237.9 L 325.9,298.8 L 249.0,292.9 L 206.7,234.1 L 226.5,168.5 Z" fill="#3FB950" fill-opacity="0.18" stroke="#3FB950" stroke-width="2" filter="url(#glow)"/><circle cx="286.0" cy="100.5" r="4" fill="#3FB950" stroke="#161B22" stroke-width="1"/><circle cx="373.2" cy="146.4" r="4" fill="#3FB950" stroke="#161B22" stroke-width="1"/><circle cx="382.0" cy="237.9" r="4" fill="#3FB950" stroke="#161B22" stroke-width="1"/><circle cx="325.9" cy="298.8" r="4" fill="#3FB950" stroke="#161B22" stroke-width="1"/><circle cx="249.0" cy="292.9" r="4" fill="#3FB950" stroke="#161B22" stroke-width="1"/><circle cx="206.7" cy="234.1" r="4" fill="#3FB950" stroke="#161B22" stroke-width="1"/><circle cx="226.5" cy="168.5" r="4" fill="#3FB950" stroke="#161B22" stroke-width="1"/><text x="286.0" y="71.9" text-anchor="middle" fill="#8B949E" font-size="11">Python</text><text x="398.6619166236431" y="126.1551195521565" text-anchor="start" fill="#8B949E" font-size="11">SQL</text><text x="426.4871121454008" y="248.06526658310491" text-anchor="start" fill="#8B949E" font-size="11">TypeScript</text><text x="348.52264680684016" y="345.8296138647386" text-anchor="start" fill="#8B949E" font-size="11">Jupyter Notebook</text><text x="223.4773531931599" y="345.8296138647386" text-anchor="end" fill="#8B949E" font-size="11">Java</text><text x="145.51288785459923" y="248.06526658310491" text-anchor="end" fill="#8B949E" font-size="11">Dockerfile</text><text x="173.3380833763569" y="126.15511955215652" text-anchor="end" fill="#8B949E" font-size="11">Shell</text></svg>